<svg xmlns="http://www.w3.org/2000/svg" viewBox="0 0 207.64 245.45">
  <g>
    <path
      d="M78.97 241.4c-25.66 0-44.81-7.1-56.92-21.12a72.39 72.39 0 01-18-48.6c0-28.87 16.26-51.02 48.38-65.9C40.11 87.9 33.86 71.72 33.86 57.64c0-14.5 5.96-27.21 17.71-37.8C63.2 9.37 78.34 4.06 96.57 4.06c18.52 0 33.48 5.55 44.48 16.5 11 10.94 16.58 24.63 16.58 40.67 0 22.62-12.25 41.03-36.43 54.76l24.23 32.19c5.49-10.68 10.12-24.88 13.81-42.33a4.04 4.04 0 013.95-3.22 4.1 4.1 0 01.72.07l36.34 6.51a4.05 4.05 0 013.22 4.89 215.58 215.58 0 01-29.04 69.76c6.07 5.69 11.92 8.57 17.44 8.57q1.41 0 7.44-.33l.21-.01a4.05 4.05 0 014.05 4.05v37.8a4.06 4.06 0 01-3.06 3.93 74.27 74.27 0 01-17.93 2.4c-15.5 0-30.12-6.6-43.51-19.65-18.05 13.8-38.25 20.79-60.1 20.79zm-2.8-102.73c-11.83 8.07-17.6 17.93-17.6 30.08 0 8.36 2.37 14.97 7.23 20.22 4.78 5.15 11.48 7.66 20.5 7.66a38.32 38.32 0 0025.7-9.52zM99 43.91c-4.4 0-7.64 1.18-9.9 3.6a13.63 13.63 0 00-3.48 9.79c0 6.44 3.94 15.36 11.73 26.53 10-6.52 14.88-14.8 14.88-25.23a16.64 16.64 0 00-3.45-10.76c-2.08-2.64-5.28-3.93-9.78-3.93z"
      fill="#edf0f1"
    />
    <path
      d="M96.56 8.1q26.24 0 41.63 15.31 15.4 15.32 15.4 37.8 0 33.57-38.44 53.44l30.79 40.9q10.59-17.27 17.27-48.88l36.33 6.52a209.77 209.77 0 01-30.3 71.2q11.57 12.07 22.64 12.07 1.46 0 7.66-.34v37.8a70.16 70.16 0 01-16.95 2.29q-23.13 0-43.18-21.03-27.2 22.17-60.44 22.17-36.83 0-53.86-19.72A68.12 68.12 0 018.1 171.68q0-42.86 50.5-64.2-20.7-28.35-20.68-49.86 0-20.04 16.37-34.78Q70.65 8.1 96.56 8.1m-.33 81.13Q116.28 78 116.28 58.6a20.73 20.73 0 00-4.32-13.27q-4.31-5.46-12.96-5.46-8.29 0-12.86 4.89a17.66 17.66 0 00-4.57 12.54q0 11.9 14.66 31.93M86.3 200.68q17.74 0 31.12-13.03l-40.25-54.42q-22.64 13.68-22.64 35.52 0 14 8.3 22.97 8.31 8.97 23.47 8.96M96.56 0c-19.25 0-35.3 5.66-47.7 16.83-12.64 11.39-19.04 25.11-19.04 40.8 0 14.08 5.46 29.38 16.65 46.55C15.62 119.73 0 142.4 0 171.69a76.33 76.33 0 0019 51.24c12.9 14.94 33.09 22.52 59.97 22.52 21.65 0 41.73-6.58 59.8-19.57 13.5 12.24 28.21 18.43 43.83 18.43a78.3 78.3 0 0018.9-2.53 8.1 8.1 0 006.14-7.85v-37.8a8.09 8.09 0 00-8.1-8.1l-.43.01c-5.4.3-6.85.33-7.22.33-3.75 0-7.83-1.77-12.17-5.28a220.33 220.33 0 0027.72-68.1 8.1 8.1 0 00-6.47-9.77l-36.33-6.51a8.18 8.18 0 00-1.44-.13 8.1 8.1 0 00-7.91 6.43c-2.97 14.02-6.53 25.86-10.65 35.37l-17.48-23.22c22.92-14.23 34.53-33.02 34.53-55.93 0-17.15-5.98-31.8-17.79-43.54C132.12 5.94 116.2 0 96.56 0zm1.82 78.12c-7.08-10.86-8.7-17.25-8.7-20.82 0-4 1.35-5.92 2.38-7.02.54-.58 2.16-2.32 6.94-2.32 4.73 0 6.1 1.73 6.6 2.38a12.79 12.79 0 012.59 8.26c0 7.88-3.15 14.21-9.8 19.52zM86.3 192.6c-7.82 0-13.56-2.09-17.53-6.37-4.14-4.46-6.15-10.18-6.15-17.47 0-9.58 4.16-17.62 12.7-24.42l31.06 42.01a34.1 34.1 0 01-20.08 6.25z"
      fill="#010202"
    />
  </g>
</svg>
