<svg xmlns="http://www.w3.org/2000/svg" viewBox="0 0 10.29 8.08">
  <path
    d="M10.29 7.17a.92.92 0 01-.92.91H.92A.92.92 0 010 7.17V.92A.92.92 0 01.92 0h8.45a.92.92 0 01.92.92zM9.37.73H.92a.19.19 0 00-.18.19 2.07 2.07 0 00.84 1.63l2.3 1.82c.3.25.86.77 1.26.77h.01c.4 0 .95-.52 1.26-.77l2.3-1.82a2.24 2.24 0 00.84-1.42c0-.14.04-.4-.18-.4zm.18 2.02a3.1 3.1 0 01-.4.38c-.81.64-1.64 1.28-2.44 1.95a2.66 2.66 0 01-1.56.8h-.01a2.66 2.66 0 01-1.56-.8c-.8-.67-1.63-1.31-2.45-1.95a3.23 3.23 0 01-.4-.38v4.42a.19.19 0 00.19.18h8.45a.19.19 0 00.18-.18z"
  />
</svg>
