<svg xmlns="http://www.w3.org/2000/svg" viewBox="0 0 275.09 632.03">
  <path
    d="M171.92 8.04q29.47 0 79.15 9.1l-.83 108.63q-31.1-6.03-52.31-6.05-34.2 0-45.39 18.4-11.18 18.43-11.62 77.7l-.42 54.5h49.12l-.74 95.67h-49.11l-1.85 241.95H8.09l2.99-392.11Q11.65 140.92 23 99.16 34.36 57.42 69.15 32.7q34.8-24.67 102.77-24.67z"
    fill="#edf1f1"/>
  <path
    d="M272.75 27.45l-15.94-16c.12.12.22.26.33.4a8.09 8.09 0 00-4.56-2.65C219.1 3.1 191.98 0 171.98 0c-46.8 0-82.96 8.8-107.43 26.18-24.72 17.47-41.3 41.33-49.32 70.94C7.51 125.48 3.38 165.4 3 215.82L0 607.95a7.96 7.96 0 002.7 6.01c-.12-.1-.25-.18-.36-.3l15.94 16.02a8 8 0 005.68 2.36H153.8a8.17 8.17 0 008.14-8.08l1.79-233.88h41.03a8.13 8.13 0 008.1-8.08l.73-95.66a8 8 0 00-2.34-5.75l-15.93-16a.04.04 0 01.02.02 7.93 7.93 0 00-5.66-2.36h-24.99l.24-30.4c.35-47.18 5.87-66.05 10.43-73.55 5.84-9.58 18.74-14.47 38.44-14.47 13.6 0 30.66 1.98 50.77 5.9a8.33 8.33 0 001.54.15 8.16 8.16 0 008.14-8.08l.84-108.64a8 8 0 00-2.34-5.7zm-14.14-13.2a7.9 7.9 0 00-1.19-2.06 7.92 7.92 0 011.19 2.05zm.53 2.89a7.9 7.9 0 00-.43-2.54 7.9 7.9 0 01.43 2.54zm-62.63 249.04a8.54 8.54 0 01.53.99 8.3 8.3 0 00-.53-1zm.72 1.61a7.3 7.3 0 01.27.9 7.84 7.84 0 00-.27-.9zm-.92-2a8.64 8.64 0 00-.7-.87 8.49 8.49 0 01.7.88zm-31.68 4.52h24.98l-.73 95.67h-49.11l-1.85 241.96H8.1l2.99-392.11q.57-74.9 11.93-116.68 11.35-41.73 46.14-66.44 34.8-24.67 102.77-24.67 29.47 0 79.15 9.1l-.83 108.63q-31.1-6.03-52.31-6.05-34.2 0-45.39 18.4-11.18 18.43-11.62 77.7l-.42 54.5h16.19"
    fill="#010202"/>
</svg>
