<svg xmlns="http://www.w3.org/2000/svg" viewBox="0 0 275.03 632.07">
  <path
    d="M251.06 8.08l-3 392.15q-.56 74.85-11.91 116.63-11.35 41.8-46.2 66.45-34.81 24.67-102.77 24.67-29.4 0-79.15-9.1l.83-108.64c20.78 4.06 38.19 6.05 52.37 6.05q34.19 0 45.33-18.39 11.17-18.37 11.63-77.67l2.99-392.16h129.88z"
    fill="#edf1f1"/>
  <path
    d="M272.7 18.34L256.8 2.38s0-.02-.02-.02 0-.01-.02-.02h.01A7.92 7.92 0 00251.13 0H121.25a8.13 8.13 0 00-8.1 8.08l-3 392.16c-.35 47.13-5.87 66-10.47 73.51-5.79 9.63-18.75 14.46-38.39 14.46-13.6 0-30.71-1.98-50.82-5.9a7.52 7.52 0 00-1.55-.14 8.23 8.23 0 00-5.14 1.89 8.03 8.03 0 00-2.95 6.19L0 598.88a8 8 0 003.4 6.54 8.52 8.52 0 01-1.06-.78l15.94 16a7.81 7.81 0 004.17 2.2c33.5 6.09 60.57 9.23 80.6 9.23 46.8 0 82.96-8.8 107.48-26.18 24.67-17.52 41.26-41.38 49.33-70.99 7.71-28.36 11.8-68.28 12.17-118.66l3-392.15a8.03 8.03 0 00-2.33-5.75zm-14.95-14.8l-.26-.31.26.31zm1.2 2.9a6.37 6.37 0 00-.21-.69 6.36 6.36 0 01.2.7zm-.46-1.51c-.07-.16-.16-.3-.24-.46.07.16.17.3.24.46zM8.87 490.25c20.78 4.06 38.18 6.05 52.36 6.05q34.2 0 45.33-18.4 11.18-18.36 11.64-77.66l2.99-392.16h129.87l-3 392.16q-.56 74.84-11.91 116.62-11.35 41.8-46.2 66.45-34.81 24.67-102.77 24.67-29.4 0-79.15-9.1zM4.05 605.9a7.68 7.68 0 002.47.93 7.77 7.77 0 01-2.47-.93z"
    fill="#010202"/>
</svg>
