<svg version="1.1" id="logo" xmlns="http://www.w3.org/2000/svg" x="0" y="0" viewBox="0 0 609.5 641.9"
     xml:space="preserve">
  <g id="j">
    <path
      d="M251.3 18.9l-3 392.2c-.4 49.9-4.4 88.8-11.9 116.6-7.6 27.9-23 50-46.2 66.4-23.2 16.5-57.5 24.7-102.8 24.7-19.6 0-46-3-79.1-9.1l.8-108.6c20.8 4.1 38.2 6.1 52.4 6.1 22.8 0 37.9-6.1 45.3-18.4 7.4-12.2 11.3-38.1 11.6-77.7l3-392.2h129.9z"
      fill="#edf1f1"
    />
    <path
      d="M273 29.2c-5.3-5.3-10.6-10.6-15.9-16a7.54 7.54 0 00-5.6-2.3h-130c-4.5 0-8.1 3.6-8.1 8.1l-3 392.2c-.4 47.1-5.9 66-10.5 73.5-5.8 9.6-18.7 14.5-38.4 14.5-13.6 0-30.7-2-50.8-5.9-.5-.1-1-.1-1.5-.1a8.26 8.26 0 00-8.1 8.1L.3 609.7c0 2.7 1.3 5.1 3.4 6.5l-1.1-.8c5.3 5.3 10.6 10.7 15.9 16 1.1 1.1 2.5 1.9 4.2 2.2 33.5 6.1 60.6 9.2 80.6 9.2 46.8 0 83-8.8 107.5-26.2 24.7-17.5 41.3-41.4 49.3-71 7.7-28.4 11.8-68.3 12.2-118.7l3-392.2c0-2-.9-4.1-2.3-5.5zm-15-14.8l-.3-.3c.1.1.2.1.3.3zm1.2 2.9c0-.2-.1-.5-.2-.7.1.2.1.4.2.7zm-.5-1.6c-.1-.2-.2-.3-.2-.5.1.2.2.4.2.5zM9.1 501.1c20.8 4.1 38.2 6.1 52.4 6.1 22.8 0 37.9-6.1 45.3-18.4 7.4-12.2 11.3-38.1 11.6-77.7l3-392.2h129.9l-3 392.2c-.4 49.9-4.4 88.8-11.9 116.6-7.6 27.9-23 50-46.2 66.4-23.2 16.5-57.5 24.7-102.8 24.7-19.6 0-46-3-79.1-9.1l.8-108.6zM4.3 616.7c.8.4 1.6.8 2.5.9-.9-.1-1.7-.4-2.5-.9z"
      fill="#010202"
    />
  </g>
  <g id="f">
    <path
      d="M506.6 9.1c19.6 0 46 3 79.1 9.1l-.8 108.6c-20.7-4-38.2-6.1-52.3-6.1-22.8 0-37.9 6.1-45.4 18.4-7.5 12.3-11.3 38.2-11.6 77.7l-.4 54.5h49.1l-.7 95.7h-49.1l-1.8 242h-130l3-392.1c.4-49.9 4.4-88.8 11.9-116.7 7.6-27.8 22.9-50 46.1-66.4C427 17.3 461.3 9.1 506.6 9.1z"
      fill="#edf1f1"
    />
    <path
      d="M607.4 28.5c-5.3-5.3-10.6-10.7-15.9-16 .1.1.2.3.3.4a7.89 7.89 0 00-4.6-2.6c-33.5-6.1-60.6-9.2-80.6-9.2-46.8 0-83 8.8-107.4 26.2-24.7 17.5-41.3 41.3-49.3 70.9-7.7 28.4-11.8 68.3-12.2 118.7l-3 392.1c0 2.4 1 4.5 2.7 6-.1-.1-.2-.2-.4-.3 5.3 5.3 10.6 10.7 15.9 16 1.5 1.5 3.5 2.4 5.7 2.4h129.8c4.5 0 8.1-3.6 8.1-8.1l1.8-233.9h41c4.5 0 8.1-3.6 8.1-8.1l.7-95.7c0-2.2-.9-4.3-2.3-5.7-5.3-5.3-10.6-10.7-15.9-16a7.68 7.68 0 00-5.7-2.4h-25l.2-30.4c.4-47.2 5.9-66.1 10.4-73.6 5.8-9.6 18.7-14.5 38.4-14.5 13.6 0 30.7 2 50.8 5.9.5.1 1 .1 1.5.1 1.8 0 3.7-.6 5.1-1.8 1.9-1.5 3-3.8 3-6.2l.8-108.6c.3-2.1-.5-4.1-2-5.6zm-14.2-13.2c-.3-.7-.7-1.4-1.2-2.1.6.7 1 1.4 1.2 2.1zm.6 2.9c0-.9-.2-1.7-.4-2.5.2.8.4 1.6.4 2.5zm-62.6 249.1c.2.3.4.6.5 1-.2-.4-.4-.7-.5-1zm.7 1.6l.3.9-.3-.9zm-1-2c-.2-.3-.5-.6-.7-.9.3.3.5.6.7.9zm-31.6 4.5h25l-.7 95.7h-49.1l-1.8 242h-130l3-392.1c.4-49.9 4.4-88.8 11.9-116.7 7.6-27.8 22.9-50 46.1-66.4C427 17.3 461.3 9.1 506.6 9.1c19.6 0 46 3 79.1 9.1l-.8 108.6c-20.7-4-38.2-6.1-52.3-6.1-22.8 0-37.9 6.1-45.4 18.4-7.5 12.3-11.3 38.2-11.6 77.7l-.4 54.5h16.2"
      fill="#010202"
    />
  </g>
</svg>
