<svg xmlns="http://www.w3.org/2000/svg" viewBox="0 0 10.289 10.289">
  <path
    d="M10.29 5.144A5.145 5.145 0 115.144 0a5.146 5.146 0 015.144 5.144zM6.824 3.617c.034-.006.068-.127.088-.153a.449.449 0 01.148-.1 1.507 1.507 0 01.347-.08.336.336 0 01.342.072c-.02-.02.14-.16.161-.167.06-.033.16-.02.2-.08a.618.618 0 00.014-.148c-.113.014-.154-.094-.16-.188a.136.136 0 01-.041.054c.007-.1-.12-.026-.167-.04-.154-.04-.134-.147-.18-.262-.028-.06-.101-.08-.129-.14-.026-.04-.04-.127-.1-.134-.04-.007-.114.142-.127.134-.06-.033-.087.013-.134.04-.04.027-.073.014-.114.034.12-.041-.054-.107-.114-.094.094-.027.047-.127-.006-.174h.033c-.014-.06-.201-.114-.261-.154a.863.863 0 00-.45-.067c-.08.047.021.18.021.248.007.08-.08.1-.08.167 0 .114.214.094.16.248-.033.094-.16.114-.215.187-.052.068.007.188.061.235.054.04-.094.107-.113.12-.115.054-.201-.113-.229-.214-.02-.073-.026-.16-.106-.201-.041-.013-.168-.033-.195.008-.04-.102-.18-.141-.275-.175a.756.756 0 00-.388-.027c.047-.006-.013-.214-.128-.181a.73.73 0 00.035-.207.373.373 0 01.08-.155c.013-.027.16-.18.114-.187a.378.378 0 00.334-.074c.06-.06.088-.16.147-.227.088-.101.195.026.288.033.135.006.128-.14.054-.208.087.007.014-.154-.033-.174-.06-.02-.288.04-.168.087-.026-.013-.187.322-.281.155-.027-.034-.04-.175-.1-.182-.054 0-.088.06-.107.1.033-.086-.188-.147-.235-.153.101-.067.02-.14-.053-.181-.054-.033-.222-.06-.269-.006-.127.153.135.174.201.214.02.012.1.06.054.094-.04.02-.161.053-.174.08-.04.06.047.128-.013.188-.061-.06-.061-.162-.108-.229.06.075-.241.034-.234.034-.1 0-.261.067-.335-.034-.014-.027-.014-.18.027-.147-.06-.047-.1-.094-.14-.12a3.996 3.996 0 00-.63.274.111.111 0 00.08-.007 1.646 1.646 0 00.154-.08c.066-.027.208-.107.281-.046a.133.133 0 01.033-.034 1.488 1.488 0 01.134.167.408.408 0 00-.2-.007c-.047.014-.128.028-.147.08.02.034.046.089.033.122-.087-.06-.155-.161-.275-.174a1.143 1.143 0 00-.147.006 4.358 4.358 0 00-1.574 1.487.192.192 0 00.08.054c.067.02 0 .215.128.113a.094.094 0 01.02.128c.006-.007.274.167.294.18.047.042.12.088.14.141a.117.117 0 01-.067.121c-.006-.013-.106-.114-.12-.088-.02.035 0 .215.073.208-.106.007-.06.423-.086.503 0 .006.013.006.013.006-.02.081.047.396.18.363-.086.02.155.328.188.348a.86.86 0 01.248.188c.068.093.068.234.162.307-.028.081.14.175.133.288-.013.007-.02.007-.033.014.033.094.16.094.207.18.028.054 0 .181.087.155a.742.742 0 00-.16-.415c-.04-.067-.081-.128-.114-.195a1.664 1.664 0 01-.067-.2c.027.006.174.059.16.08-.053.133.215.368.289.456.02.02.173.22.093.22.087 0 .208.134.248.202a1.853 1.853 0 01.087.333c.04.135.228.196.335.256a2.594 2.594 0 00.268.147c.141.054.175.007.295-.014.175-.026.194.168.335.242a.56.56 0 00.369.074c-.041.012.14.288.153.307.06.081.175.121.241.201a.105.105 0 00.047-.06c-.026.074.1.215.168.201.074-.014.094-.16.094-.214a.234.234 0 01-.328-.12c-.014-.034-.121-.222-.027-.222.127 0 .04-.1.027-.194-.014-.094-.108-.154-.154-.234-.04.08-.174.06-.215-.007 0 .02-.02.054-.02.08a.25.25 0 01-.1-.007c.013-.08.02-.18.04-.268.033-.12.255-.355-.034-.341a.175.175 0 00-.174.134c-.034.08-.02.155-.114.194a.582.582 0 01-.321-.02.598.598 0 01-.215-.442c-.007-.18.087-.341 0-.509.04-.033.08-.1.127-.135.041-.026.088.02.108-.06a.429.429 0 00-.054-.04c.1.048.288-.067.375 0 .054.04.114.053.147-.013.007-.02-.047-.1-.02-.154.02.114.094.135.195.06.04.04.148.028.22.067.074.047.088.12.175.02a.374.374 0 01.08.161c.02.075.06.262.128.295.14.087.107-.148.093-.228-.006-.006-.006-.228-.013-.228-.214-.047-.134-.214-.013-.328a1.63 1.63 0 00.241-.12c.06-.055.134-.148.1-.234a.086.086 0 00.074-.061c-.02-.007-.1-.074-.114-.067.047-.027.04-.068.013-.107.068-.04.034-.114.101-.14.073.1.22-.014.148-.094.066-.094.22-.047.26-.135.1.027.028-.1.081-.174.047-.06.127-.06.188-.094 0 .006.167-.093.113-.1.114.013.342-.108.168-.208.026-.06-.06-.087-.121-.1.047-.013.107.013.147-.013.087-.061.028-.088-.046-.108a.403.403 0 00-.288.08c-.054.041-.087.114-.155.127zM8.24 8.1c-.04-.041-.114-.028-.168-.055a.997.997 0 00-.16-.053c.013-.135-.135-.181-.228-.248-.087-.066-.141-.14-.268-.113-.014.006-.147.053-.12.08a.573.573 0 00-.241-.148c-.108-.034-.182-.167-.288-.047-.054.054-.028.134-.054.188-.087-.073.08-.161.014-.241-.081-.094-.222.06-.288.1-.041.034-.088.047-.115.087a1.585 1.585 0 00-.073.155c-.02-.054-.135-.041-.142-.08.028.16.028.328.061.488a.378.378 0 01-.08.322.483.483 0 00-.194.268c-.014.08.006.154.08.174.007.1-.107.173-.101.28 0 .008.007.075.014.108A4.25 4.25 0 008.239 8.1z"
  />
</svg>
